[2026-03-14 19:34:31] [INFO] Jarvis Desktop launcher started.
[2026-03-14 19:34:31] [INFO] Runtime log path: C:\Jarvis\logs\runtime_2026-03-14_19-34-31.txt
[2026-03-14 19:34:31] [INFO] Launcher executable: C:\Users\anden\AppData\Local\Python\pythoncore-3.14-64\pythonw.exe
[2026-03-14 19:34:31] [INFO] Root directory: C:\Jarvis
[2026-03-14 19:34:31] [INFO] Target script: C:\Jarvis\jarvis_desktop_test.py
[2026-03-14 19:34:31] [INFO] Diagnostics script: C:\Jarvis\desktop\jarvis_diagnostics.pyw
[2026-03-14 19:34:31] [INFO] Recovery attempts allowed: 3
[2026-03-14 19:34:31] [INFO] Voice hook ready: C:\Jarvis\jarvis_voice.py
[2026-03-14 19:34:31] [INFO] Starting desktop renderer process. attempt=1
[2026-03-14 19:34:31] [INFO] Child executable: C:\Users\anden\AppData\Local\Python\pythoncore-3.14-64\pythonw.exe
[2026-03-14 19:34:32] [STDOUT] Jarvis Desktop Concept 1 - Version 1.02
[2026-03-14 19:34:32] [STDOUT] Hotkey: Ctrl + Alt + End
[2026-03-14 19:34:32] [STDERR] Traceback (most recent call last):
[2026-03-14 19:34:32] [STDERR]   File "C:\Jarvis\jarvis_desktop_test.py", line 44, in <module>
[2026-03-14 19:34:32] [STDERR]     raise SystemExit(main())
[2026-03-14 19:34:32] [STDERR]                      ~~~~^^
[2026-03-14 19:34:32] [STDERR]   File "C:\Jarvis\jarvis_desktop_test.py", line 36, in main
[2026-03-14 19:34:32] [STDERR]     raise RuntimeError("Jarvis test crash triggered intentionally")
[2026-03-14 19:34:32] [STDERR] RuntimeError: Jarvis test crash triggered intentionally
[2026-03-14 19:34:32] [INFO] Desktop renderer exited. exit_code=1
[2026-03-14 19:34:32] [WARN] Recovery attempt 1/3
[2026-03-14 19:34:33] [INFO] Starting desktop renderer process. attempt=2
[2026-03-14 19:34:33] [INFO] Child executable: C:\Users\anden\AppData\Local\Python\pythoncore-3.14-64\pythonw.exe
[2026-03-14 19:34:33] [STDOUT] Jarvis Desktop Concept 1 - Version 1.02
[2026-03-14 19:34:33] [STDOUT] Hotkey: Ctrl + Alt + End
[2026-03-14 19:34:33] [STDERR] Traceback (most recent call last):
[2026-03-14 19:34:33] [STDERR]   File "C:\Jarvis\jarvis_desktop_test.py", line 44, in <module>
[2026-03-14 19:34:33] [STDERR]     raise SystemExit(main())
[2026-03-14 19:34:33] [STDERR]                      ~~~~^^
[2026-03-14 19:34:33] [STDERR]   File "C:\Jarvis\jarvis_desktop_test.py", line 36, in main
[2026-03-14 19:34:33] [STDERR]     raise RuntimeError("Jarvis test crash triggered intentionally")
[2026-03-14 19:34:33] [STDERR] RuntimeError: Jarvis test crash triggered intentionally
[2026-03-14 19:34:33] [INFO] Desktop renderer exited. exit_code=1
[2026-03-14 19:34:33] [WARN] Recovery attempt 2/3
[2026-03-14 19:34:35] [INFO] Starting desktop renderer process. attempt=3
[2026-03-14 19:34:35] [INFO] Child executable: C:\Users\anden\AppData\Local\Python\pythoncore-3.14-64\pythonw.exe
[2026-03-14 19:34:35] [STDOUT] Jarvis Desktop Concept 1 - Version 1.02
[2026-03-14 19:34:35] [STDOUT] Hotkey: Ctrl + Alt + End
[2026-03-14 19:34:35] [STDERR] Traceback (most recent call last):
[2026-03-14 19:34:35] [STDERR]   File "C:\Jarvis\jarvis_desktop_test.py", line 44, in <module>
[2026-03-14 19:34:35] [STDERR]     raise SystemExit(main())
[2026-03-14 19:34:35] [STDERR]                      ~~~~^^
[2026-03-14 19:34:35] [STDERR]   File "C:\Jarvis\jarvis_desktop_test.py", line 36, in main
[2026-03-14 19:34:35] [STDERR]     raise RuntimeError("Jarvis test crash triggered intentionally")
[2026-03-14 19:34:35] [STDERR] RuntimeError: Jarvis test crash triggered intentionally
[2026-03-14 19:34:35] [INFO] Desktop renderer exited. exit_code=1
[2026-03-14 19:34:35] [ERROR] Crash log written: C:\Jarvis\logs\crash\crash_2026-03-14_19-34-35.txt
[2026-03-14 19:34:35] [INFO] Trying voice line 'Uhm..... Sir, I seem to be malfunctioning.' using voice --text --mode
[2026-03-14 19:34:40] [VOICE_STDOUT] WARNING: malfunction post-process failed, using clean TTS: No module named 'pydub'
[2026-03-14 19:34:40] [VOICE_STDERR] [mp3 @ 000001B3D77A4CC0] Estimating duration from bitrate, this may be inaccurate
[2026-03-14 19:34:40] [VOICE_STDERR] Input #0, mp3, from 'C:/Users/anden/AppData/Local/Temp/tmpmgzieh4j.mp3':
[2026-03-14 19:34:40] [VOICE_STDERR]   Duration: 00:00:04.06, start: 0.000000, bitrate: 48 kb/s
[2026-03-14 19:34:40] [VOICE_STDERR]   Stream #0:0: Audio: mp3 (mp3float), 24000 Hz, mono, fltp, 48 kb/s
[2026-03-14 19:34:40] [INFO] Voice line completed: Uhm..... Sir, I seem to be malfunctioning.
[2026-03-14 19:34:40] [INFO] Failure voice step 1/3 success=True line=Uhm..... Sir, I seem to be malfunctioning.
[2026-03-14 19:34:41] [INFO] Trying voice line 'Attempting restart.' using voice --text --mode
[2026-03-14 19:34:44] [VOICE_STDOUT] WARNING: malfunction post-process failed, using clean TTS: No module named 'pydub'
[2026-03-14 19:34:44] [VOICE_STDERR] [mp3 @ 0000019AE1128A00] Estimating duration from bitrate, this may be inaccurate
[2026-03-14 19:34:44] [VOICE_STDERR] Input #0, mp3, from 'C:/Users/anden/AppData/Local/Temp/tmpbk80dbo5.mp3':
[2026-03-14 19:34:44] [VOICE_STDERR]   Duration: 00:00:02.11, start: 0.000000, bitrate: 48 kb/s
[2026-03-14 19:34:44] [VOICE_STDERR]   Stream #0:0: Audio: mp3 (mp3float), 24000 Hz, mono, fltp, 48 kb/s
[2026-03-14 19:34:44] [INFO] Voice line completed: Attempting restart.
[2026-03-14 19:34:44] [INFO] Failure voice step 2/3 success=True line=Attempting restart.
[2026-03-14 19:34:45] [INFO] Trying voice line 'Restart failed.' using voice --text --mode
[2026-03-14 19:34:48] [VOICE_STDOUT] WARNING: malfunction post-process failed, using clean TTS: No module named 'pydub'
[2026-03-14 19:34:48] [VOICE_STDERR] [mp3 @ 0000023FB6313BC0] Estimating duration from bitrate, this may be inaccurate
[2026-03-14 19:34:48] [VOICE_STDERR] Input #0, mp3, from 'C:/Users/anden/AppData/Local/Temp/tmptel3_ipc.mp3':
[2026-03-14 19:34:48] [VOICE_STDERR]   Duration: 00:00:02.02, start: 0.000000, bitrate: 48 kb/s
[2026-03-14 19:34:48] [VOICE_STDERR]   Stream #0:0: Audio: mp3 (mp3float), 24000 Hz, mono, fltp, 48 kb/s
[2026-03-14 19:34:48] [INFO] Voice line completed: Restart failed.
[2026-03-14 19:34:48] [INFO] Failure voice step 3/3 success=True line=Restart failed.
[2026-03-14 19:34:49] [INFO] Diagnostics process launched.
